<svg xmlns="http://www.w3.org/2000/svg" width="61.3955" height="24.503" x="0px" y="0px" viewBox="0 0 61.3955 24.503"><path d="M56.7 9.1h4v15h-4v-7.3zm-7.1 0h4v15h-4v-7.5zm-27.2 3.5a3.9 3.9 0 0 0-3.9 3.9c0 2.1 1.8 3.9 3.9 3.9a3.9 3.9 0 0 0 0-7.8m0 11.9c-4.4 0-8-3.6-8-8s3.6-8 8-8 8 3.6 8 8-3.6 8-8 8m17.5-4.1c-.9-.01-1.85.08-2.72-.25-.56-.2-.72-.84-.76-1.38-.03-.92-.02-1.84-.02-2.76 0-.93.32-1.9 1.05-2.5a4.02 4.02 0 0 1 2.9-.8c1.15.09 2.23.78 2.76 1.8.54 1.07.64 2.34.32 3.48a3.54 3.54 0 0 1-2.97 2.38c-.19.02-.37.03-.56.03zm0-11.5a7.54 7.54 0 0 0-3.5.85c-.21-.03-.05-.37-.1-.54V4.6h-3.9c0 5.06-.02 10.12.01 15.19.05 1.28.33 2.67 1.32 3.57.98.87 2.36 1.02 3.62 1.03 1.19 0 2.39.05 3.58-.05a7.32 7.32 0 0 0 5.48-3.55 8.9 8.9 0 0 0 .85-6.4 7.16 7.16 0 0 0-4.2-4.89c-1-.41-2.08-.6-3.16-.6zM11.1 24.2c-1.73 0-3.5.12-5.18-.41a4.1 4.1 0 0 1-2.7-3.19c-.19-.96-.1-1.94-.12-2.9v-4.4H0V9.4h3.2V5h4v4.4h5.4v3.9H7.1l-.01 4.83c.02.77.13 1.68.8 2.17.6.41 1.33.28 2 .3h2.81v3.6h-1.6zM61.2 1.9C60.8.5 59.4-.3 58 .1c-1 .3-1.5.9-1.9 1.5-.4.5-.7.9-1.2 1.1-.6.1-1-.1-1.6-.3-.7-.3-1.4-.7-2.4-.4-1.4.3-2.3 1.8-1.9 3.2v.2c.4 1.4 1.8 2.2 3.2 1.8 1-.3 1.5-1 1.9-1.6.3-.5.6-.9 1.2-1.1.6-.1 1 .1 1.6.3.7.3 1.4.7 2.5.4 1.4-.3 2.3-1.8 1.9-3.2 0 .1 0 0-.1-.1 0 .1 0 .1 0 0"/></svg>